<svg width="16" height="16" viewBox="0 0 16 16" fill="none" xmlns="http://www.w3.org/2000/svg">
<path d="M14.667 12C14.6669 12.7363 14.0693 13.333 13.333 13.333H2.66699C1.93067 13.333 1.3331 12.7363 1.33301 12V5.25977L7.06445 8.90723C7.07009 8.91081 7.07625 8.91364 7.08203 8.91699C7.36162 9.07938 7.67961 9.16498 8.00293 9.16504C8.3261 9.16499 8.64433 9.07922 8.92383 8.91699C8.92943 8.91373 8.93591 8.90974 8.94141 8.90625L14.667 5.25879V12ZM13.333 2.66602C14.0694 2.66602 14.667 3.26362 14.667 4V4.16699C14.5747 4.16676 14.481 4.19189 14.3975 4.24512L8.41699 8.05371C8.29094 8.12598 8.14828 8.16499 8.00293 8.16504C7.85701 8.16498 7.71332 8.12654 7.58691 8.05371L1.60156 4.24512C1.51809 4.19201 1.42515 4.16684 1.33301 4.16699V4C1.33301 3.26362 1.93061 2.66602 2.66699 2.66602H13.333Z" fill="currentColor"/>
</svg>
