<svg width="28" height="28" viewBox="0 0 28 28" fill="none" xmlns="http://www.w3.org/2000/svg">
<path d="M25.13 17.5H19.8333C19.2145 17.5 18.621 17.7458 18.1834 18.1834C17.7458 18.621 17.5 19.2145 17.5 19.8333V25.13" stroke="currentColor" stroke-width="2.33333" stroke-linecap="round" stroke-linejoin="round"/>
<path d="M8.16663 3.89673V5.8334C8.16663 6.76165 8.53538 7.65189 9.19175 8.30827C9.84813 8.96465 10.7384 9.3334 11.6666 9.3334C12.2855 9.3334 12.879 9.57923 13.3165 10.0168C13.7541 10.4544 14 11.0479 14 11.6667C14 12.9501 15.05 14.0001 16.3333 14.0001C16.9521 14.0001 17.5456 13.7542 17.9832 13.3166C18.4208 12.8791 18.6666 12.2856 18.6666 11.6667C18.6666 10.3834 19.7166 9.3334 21 9.3334H24.6983" stroke="currentColor" stroke-width="2.33333" stroke-linecap="round" stroke-linejoin="round"/>
<path d="M12.8334 25.6083V20.9999C12.8334 20.3811 12.5876 19.7876 12.15 19.35C11.7124 18.9124 11.1189 18.6666 10.5001 18.6666C9.88122 18.6666 9.28773 18.4208 8.85014 17.9832C8.41256 17.5456 8.16672 16.9521 8.16672 16.3333V15.1666C8.16672 14.5477 7.92089 13.9543 7.48331 13.5167C7.04572 13.0791 6.45223 12.8333 5.83339 12.8333H2.39172" stroke="currentColor" stroke-width="2.33333" stroke-linecap="round" stroke-linejoin="round"/>
<path d="M14 25.6666C20.4434 25.6666 25.6667 20.4432 25.6667 13.9999C25.6667 7.5566 20.4434 2.33325 14 2.33325C7.55672 2.33325 2.33337 7.5566 2.33337 13.9999C2.33337 20.4432 7.55672 25.6666 14 25.6666Z" stroke="currentColor" stroke-width="2.33333" stroke-linecap="round" stroke-linejoin="round"/>
</svg>
